{
	"asset":{
		"generator":"Khronos glTF Blender I/O v4.0.44",
		"version":"2.0"
	},
	"scene":0,
	"scenes":[
		{
			"name":"Scene",
			"nodes":[
				0
			]
		}
	],
	"nodes":[
		{
			"mesh":0,
			"name":"Gun",
			"scale":[
				1000,
				1000,
				1000
			]
		}
	],
	"materials":[
		{
			"name":"principledshader1",
			"pbrMetallicRoughness":{
				"baseColorFactor":[
					0.9304900169372559,
					0.7534549832344055,
					0.3925969898700714,
					1
				],
				"roughnessFactor":0.30000001192092896
			}
		}
	],
	"meshes":[
		{
			"name":"material1",
			"primitives":[
				{
					"attributes":{
						"POSITION":0,
						"NORMAL":1
					},
					"indices":2,
					"material":0
				}
			]
		}
	],
	"accessors":[
		{
			"bufferView":0,
			"componentType":5126,
			"count":300136,
			"max":[
				0.030616939067840576,
				0.29961663484573364,
				0.08694376051425934
			],
			"min":[
				-0.06238630414009094,
				0.0013273973017930984,
				-0.03381612151861191
			],
			"type":"VEC3"
		},
		{
			"bufferView":1,
			"componentType":5126,
			"count":300136,
			"type":"VEC3"
		},
		{
			"bufferView":2,
			"componentType":5125,
			"count":300528,
			"type":"SCALAR"
		}
	],
	"bufferViews":[
		{
			"buffer":0,
			"byteLength":3601632,
			"byteOffset":0,
			"target":34962
		},
		{
			"buffer":0,
			"byteLength":3601632,
			"byteOffset":3601632,
			"target":34962
		},
		{
			"buffer":0,
			"byteLength":1202112,
			"byteOffset":7203264,
			"target":34963
		}
	],
	"buffers":[
		{
			"byteLength":8405376,
			"uri":"test02.bin"
		}
	]
}
